<svg xmlns="http://www.w3.org/2000/svg" viewBox="0 0 800 800"><polygon
    fill="rgb(228,119,25)"
    stroke="rgb(228,119,25)"
    points="706.5957719087601,497.7422219514847 669.8698702454567,628.3981582522392 608.3982084691525,605.9688559174538"
  /><polygon
    fill="rgb(225,119,25)"
    stroke="rgb(225,119,25)"
    points="608.3982084691525,605.9688559174538 669.8698702454567,628.3981582522392 519.0047058463097,578.030528575182"
  /><polygon
    fill="rgb(228,119,25)"
    stroke="rgb(228,119,25)"
    points="608.3982084691525,605.9688559174538 680.4632538557053,504.253076761961 706.5957719087601,497.7422219514847"
  /><polygon
    fill="rgb(247,132,25)"
    stroke="rgb(247,132,25)"
    points="665.3902679681778,397.0713332109153 690.076624751091,374.66672506183386 706.5957719087601,497.7422219514847"
  /><polygon
    fill="rgb(247,132,25)"
    stroke="rgb(247,132,25)"
    points="665.3902679681778,397.0713332109153 706.5957719087601,497.7422219514847 680.4632538557053,504.253076761961"
  /><polygon
    fill="rgb(119,57,0)"
    stroke="rgb(119,57,0)"
    points="721.7896917462349,293.9782004058361 705.1139661669731,307.32716634869576 709.7220715880394,284.306947439909"
  /><polygon
    fill="rgb(119,57,0)"
    stroke="rgb(119,57,0)"
    points="609.005079716444,326.2327739596367 709.7220715880394,284.306947439909 705.1139661669731,307.32716634869576"
  /><polygon
    fill="rgb(119,57,0)"
    stroke="rgb(119,57,0)"
    points="702.3883390426636,335.1502428203821 705.1139661669731,307.32716634869576 718.8284301757812,318.75131227076054"
  /><polygon
    fill="rgb(119,57,0)"
    stroke="rgb(119,57,0)"
    points="702.3883390426636,335.1502428203821 609.005079716444,326.2327739596367 705.1139661669731,307.32716634869576"
  /><polygon
    fill="rgb(119,57,0)"
    stroke="rgb(119,57,0)"
    points="690.076624751091,374.66672506183386 702.3883390426636,335.1502428203821 713.6141461133957,343.7131283432245"
  /><polygon
    fill="rgb(119,57,0)"
    stroke="rgb(119,57,0)"
    points="702.3883390426636,335.1502428203821 690.076624751091,374.66672506183386 609.005079716444,326.2327739596367"
  /><polygon
    fill="rgb(119,57,0)"
    stroke="rgb(119,57,0)"
    points="709.7220715880394,284.306947439909 609.005079716444,326.2327739596367 639.2024156451225,203.16972851753235"
  /><polygon
    fill="rgb(119,57,0)"
    stroke="rgb(119,57,0)"
    points="639.2024156451225,203.16972851753235 740.3576663136482,193.11254560947418 709.7220715880394,284.306947439909"
  /><polygon
    fill="rgb(119,57,0)"
    stroke="rgb(119,57,0)"
    points="690.076624751091,374.66672506183386 587.6834769546986,338.15210841596127 609.005079716444,326.2327739596367"
  /><polygon
    fill="rgb(119,57,0)"
    stroke="rgb(119,57,0)"
    points="639.2024156451225,203.16972851753235 609.005079716444,326.2327739596367 587.6834769546986,338.15210841596127"
  /><polygon
    fill="rgb(225,119,25)"
    stroke="rgb(225,119,25)"
    points="519.0047058463097,578.030528575182 549.3778894841671,584.8222227394581 608.3982084691525,605.9688559174538"
  /><polygon
    fill="rgb(247,132,25)"
    stroke="rgb(247,132,25)"
    points="690.076624751091,374.66672506183386 665.3902679681778,397.0713332109153 587.6834769546986,338.15210841596127"
  /><polygon
    fill="rgb(119,57,0)"
    stroke="rgb(119,57,0)"
    points="739.9926629662514,105.55463433265686 740.3576663136482,193.11254560947418 639.2024156451225,203.16972851753235"
  /><polygon
    fill="rgb(247,132,25)"
    stroke="rgb(247,132,25)"
    points="365.2486690506339,135.34003049135208 521.5132381021976,152.79817819595337 533.508765399456,257.95115053653717"
  /><polygon
    fill="rgb(225,119,25)"
    stroke="rgb(225,119,25)"
    points="739.9926629662514,105.55463433265686 533.508765399456,257.95115053653717 521.5132381021976,152.79817819595337"
  /><polygon
    fill="rgb(119,57,0)"
    stroke="rgb(119,57,0)"
    points="587.6834769546986,338.15210841596127 533.508765399456,257.95115053653717 639.2024156451225,203.16972851753235"
  /><polygon
    fill="rgb(119,57,0)"
    stroke="rgb(119,57,0)"
    points="639.2024156451225,203.16972851753235 533.508765399456,257.95115053653717 739.9926629662514,105.55463433265686"
  /><polygon
    fill="rgb(228,119,25)"
    stroke="rgb(228,119,25)"
    points="587.6834769546986,338.15210841596127 665.3902679681778,397.0713332109153 575.1428192853928,406.28952524624765"
  /><polygon
    fill="rgb(228,119,25)"
    stroke="rgb(228,119,25)"
    points="575.1428192853928,406.28952524624765 533.508765399456,257.95115053653717 587.6834769546986,338.15210841596127"
  /><polygon
    fill="rgb(205,98,0)"
    stroke="rgb(205,98,0)"
    points="608.3982084691525,605.9688559174538 639.2202255129814,510.2611552923918 680.4632538557053,504.253076761961"
  /><polygon
    fill="rgb(247,132,25)"
    stroke="rgb(247,132,25)"
    points="680.4632538557053,504.253076761961 639.2202255129814,510.2611552923918 665.3902679681778,397.0713332109153"
  /><polygon
    fill="rgb(192,172,157)"
    stroke="rgb(192,172,157)"
    points="369.7385150939226,607.862836420536 433.9234128408134,658.6430737376213 345.5779018998146,599.2545975744724"
  /><polygon
    fill="rgb(228,116,36)"
    stroke="rgb(228,116,36)"
    points="665.3902679681778,397.0713332109153 639.2202255129814,510.2611552923918 635.2500101923943,454.51715629547834"
  /><polygon
    fill="rgb(205,98,0)"
    stroke="rgb(205,98,0)"
    points="575.1428192853928,406.28952524624765 665.3902679681778,397.0713332109153 635.2500101923943,454.51715629547834"
  /><polygon
    fill="rgb(225,119,25)"
    stroke="rgb(225,119,25)"
    points="165.8821976184845,339.70585241913795 240.2023309469223,248.59161972999573 176.85916125774384,328.57823461294174"
  /><polygon
    fill="rgb(247,132,25)"
    stroke="rgb(247,132,25)"
    points="533.508765399456,257.95115053653717 450.71828056126833,253.46819654107094 365.2486690506339,135.34003049135208"
  /><polygon
    fill="rgb(247,132,25)"
    stroke="rgb(247,132,25)"
    points="450.71828056126833,253.46819654107094 533.508765399456,257.95115053653717 575.1428192853928,406.28952524624765"
  /><polygon
    fill="rgb(205,98,0)"
    stroke="rgb(205,98,0)"
    points="635.2500101923943,454.51715629547834 598.8183671236038,434.1755384206772 575.1428192853928,406.28952524624765"
  /><polygon
    fill="rgb(36,51,67)"
    stroke="rgb(36,51,67)"
    points="593.6802326142788,478.69848892092705 598.8183671236038,434.1755384206772 635.2500101923943,454.51715629547834"
  /><polygon
    fill="rgb(247,132,25)"
    stroke="rgb(247,132,25)"
    points="639.2202255129814,510.2611552923918 593.6802326142788,478.69848892092705 635.2500101923943,454.51715629547834"
  /><polygon
    fill="rgb(228,119,25)"
    stroke="rgb(228,119,25)"
    points="450.71828056126833,253.46819654107094 228.9681012928486,25.52888721227646 365.2486690506339,135.34003049135208"
  /><polygon
    fill="rgb(119,57,0)"
    stroke="rgb(119,57,0)"
    points="310.1565112173557,173.62375140190125 450.71828056126833,253.46819654107094 334.75444942712784,335.6306701898575"
  /><polygon
    fill="rgb(228,119,25)"
    stroke="rgb(228,119,25)"
    points="334.75444942712784,335.6306701898575 450.71828056126833,253.46819654107094 510.08719988167286,408.1620573811233"
  /><polygon
    fill="rgb(247,132,25)"
    stroke="rgb(247,132,25)"
    points="575.1428192853928,406.28952524624765 510.08719988167286,408.1620573811233 450.71828056126833,253.46819654107094"
  /><polygon
    fill="rgb(205,98,0)"
    stroke="rgb(205,98,0)"
    points="598.8183671236038,434.1755384206772 593.6802326142788,478.69848892092705 575.1428192853928,406.28952524624765"
  /><polygon
    fill="rgb(119,57,0)"
    stroke="rgb(119,57,0)"
    points="334.75444942712784,335.6306701898575 267.56840497255325,320.43135173618793 310.1565112173557,173.62375140190125"
  /><polygon
    fill="rgb(119,57,0)"
    stroke="rgb(119,57,0)"
    points="195.25292068719864,380.40043268352747 267.56840497255325,320.43135173618793 334.75444942712784,335.6306701898575"
  /><polygon
    fill="rgb(119,57,0)"
    stroke="rgb(119,57,0)"
    points="176.85916125774384,328.57823461294174 267.56840497255325,320.43135173618793 195.25292068719864,380.40043268352747"
  /><polygon
    fill="rgb(119,57,0)"
    stroke="rgb(119,57,0)"
    points="176.85916125774384,328.57823461294174 170.03770977258682,291.4997099339962 267.56840497255325,320.43135173618793"
  /><polygon
    fill="rgb(119,57,0)"
    stroke="rgb(119,57,0)"
    points="310.1565112173557,173.62375140190125 267.56840497255325,320.43135173618793 161.75901532173157,260.2989363670349"
  /><polygon
    fill="rgb(119,57,0)"
    stroke="rgb(119,57,0)"
    points="267.56840497255325,320.43135173618793 170.03770977258682,291.4997099339962 161.75901532173157,260.2989363670349"
  /><polygon
    fill="rgb(228,119,25)"
    stroke="rgb(228,119,25)"
    points="510.08719988167286,408.1620573811233 353.56568947434425,404.81148168444633 334.75444942712784,335.6306701898575"
  /><polygon
    fill="rgb(247,132,25)"
    stroke="rgb(247,132,25)"
    points="195.25292068719864,380.40043268352747 334.75444942712784,335.6306701898575 353.56568947434425,404.81148168444633"
  /><polygon
    fill="rgb(247,132,25)"
    stroke="rgb(247,132,25)"
    points="593.6802326142788,478.69848892092705 639.2202255129814,510.2611552923918 687.8719857335091,569.901696741581"
  /><polygon
    fill="rgb(228,119,25)"
    stroke="rgb(228,119,25)"
    points="375.87467007339,639.6560478210449 160.33405274152756,711.7971190810204 122.06537127494812,548.7186646461487"
  /><polygon
    fill="rgb(119,57,0)"
    stroke="rgb(119,57,0)"
    points="228.9681012928486,25.52888721227646 450.71828056126833,253.46819654107094 310.1565112173557,173.62375140190125"
  /><polygon
    fill="rgb(247,132,25)"
    stroke="rgb(247,132,25)"
    points="532.7125158905983,455.79010114073753 510.08719988167286,408.1620573811233 575.1428192853928,406.28952524624765"
  /><polygon
    fill="rgb(247,132,25)"
    stroke="rgb(247,132,25)"
    points="575.1428192853928,406.28952524624765 591.3398180902004,452.5335327908397 532.7125158905983,455.79010114073753"
  /><polygon
    fill="rgb(228,119,25)"
    stroke="rgb(228,119,25)"
    points="122.06537127494812,548.7186646461487 335.92284478247166,535.1805554330349 375.87467007339,639.6560478210449"
  /><polygon
    fill="rgb(205,98,0)"
    stroke="rgb(205,98,0)"
    points="375.87467007339,639.6560478210449 335.92284478247166,535.1805554330349 434.66460790485144,528.9008578658104"
  /><polygon
    fill="rgb(192,172,157)"
    stroke="rgb(192,172,157)"
    points="433.9234128408134,658.6430737376213 375.87467007339,639.6560478210449 580.2992336452007,661.7904978990555"
  /><polygon
    fill="rgb(247,132,25)"
    stroke="rgb(247,132,25)"
    points="687.8719857335091,569.901696741581 678.9956960082054,562.9307042062283 593.6802326142788,478.69848892092705"
  /><polygon
    fill="rgb(205,98,0)"
    stroke="rgb(205,98,0)"
    points="475.77397257089615,439.7398806922138 510.08719988167286,408.1620573811233 507.21975550055504,484.8054864257574"
  /><polygon
    fill="rgb(214,194,178)"
    stroke="rgb(214,194,178)"
    points="605.2678768336773,636.7968466877937 580.2992336452007,661.7904978990555 375.87467007339,639.6560478210449"
  /><polygon
    fill="rgb(228,116,36)"
    stroke="rgb(228,116,36)"
    points="507.21975550055504,484.8054864257574 510.08719988167286,408.1620573811233 532.7125158905983,455.79010114073753"
  /><polygon
    fill="rgb(205,98,0)"
    stroke="rgb(205,98,0)"
    points="510.08719988167286,408.1620573811233 475.77397257089615,439.7398806922138 425.9136195667088,466.6893259435892"
  /><polygon
    fill="rgb(214,194,178)"
    stroke="rgb(214,194,178)"
    points="375.87467007339,639.6560478210449 615.3337296843529,579.3305499851704 605.2678768336773,636.7968466877937"
  /><polygon
    fill="rgb(228,119,25)"
    stroke="rgb(228,119,25)"
    points="615.3337296843529,579.3305499851704 375.87467007339,639.6560478210449 434.66460790485144,528.9008578658104"
  /><polygon
    fill="rgb(205,98,0)"
    stroke="rgb(205,98,0)"
    points="425.9136195667088,466.6893259435892 353.56568947434425,404.81148168444633 510.08719988167286,408.1620573811233"
  /><polygon
    fill="rgb(247,132,25)"
    stroke="rgb(247,132,25)"
    points="353.56568947434425,404.81148168444633 122.06537127494812,548.7186646461487 195.25292068719864,380.40043268352747"
  /><polygon
    fill="rgb(247,132,25)"
    stroke="rgb(247,132,25)"
    points="335.92284478247166,535.1805554330349 122.06537127494812,548.7186646461487 353.56568947434425,404.81148168444633"
  /><polygon
    fill="rgb(36,51,67)"
    stroke="rgb(36,51,67)"
    points="507.21975550055504,484.8054864257574 425.9136195667088,466.6893259435892 475.77397257089615,439.7398806922138"
  /><polygon
    fill="rgb(119,57,0)"
    stroke="rgb(119,57,0)"
    points="161.75901532173157,260.2989363670349 160.09270429611206,134.0512639284134 310.1565112173557,173.62375140190125"
  /><polygon
    fill="rgb(119,57,0)"
    stroke="rgb(119,57,0)"
    points="195.25292068719864,380.40043268352747 165.8821976184845,339.70585241913795 176.85916125774384,328.57823461294174"
  /><polygon
    fill="rgb(247,132,25)"
    stroke="rgb(247,132,25)"
    points="532.7125158905983,455.79010114073753 591.3398180902004,452.5335327908397 678.9956960082054,562.9307042062283"
  /><polygon
    fill="rgb(247,132,25)"
    stroke="rgb(247,132,25)"
    points="434.66460790485144,528.9008578658104 425.9136195667088,466.6893259435892 507.21975550055504,484.8054864257574"
  /><polygon
    fill="rgb(119,57,0)"
    stroke="rgb(119,57,0)"
    points="310.1565112173557,173.62375140190125 160.09270429611206,134.0512639284134 228.9681012928486,25.52888721227646"
  /><polygon
    fill="rgb(192,172,157)"
    stroke="rgb(192,172,157)"
    points="580.2992336452007,661.7904978990555 589.4798123836517,685.2877244353294 433.9234128408134,658.6430737376213"
  /><polygon
    fill="rgb(119,57,0)"
    stroke="rgb(119,57,0)"
    points="176.85916125774384,328.57823461294174 156.56217008829117,305.9490165114403 170.03770977258682,291.4997099339962"
  /><polygon
    fill="rgb(228,116,36)"
    stroke="rgb(228,116,36)"
    points="353.56568947434425,404.81148168444633 425.9136195667088,466.6893259435892 434.66460790485144,528.9008578658104"
  /><polygon
    fill="rgb(119,57,0)"
    stroke="rgb(119,57,0)"
    points="149.67962086200714,272.15125501155853 161.75901532173157,260.2989363670349 170.03770977258682,291.4997099339962"
  /><polygon
    fill="rgb(247,132,25)"
    stroke="rgb(247,132,25)"
    points="353.56568947434425,404.81148168444633 434.66460790485144,528.9008578658104 335.92284478247166,535.1805554330349"
  /><polygon
    fill="rgb(228,116,36)"
    stroke="rgb(228,116,36)"
    points="532.7125158905983,455.79010114073753 625.1452353596687,569.6664828062057 507.21975550055504,484.8054864257574"
  /><polygon
    fill="rgb(247,132,25)"
    stroke="rgb(247,132,25)"
    points="507.21975550055504,484.8054864257574 625.1452353596687,569.6664828062057 615.3337296843529,579.3305499851704"
  /><polygon
    fill="rgb(247,132,25)"
    stroke="rgb(247,132,25)"
    points="615.3337296843529,579.3305499851704 434.66460790485144,528.9008578658104 507.21975550055504,484.8054864257574"
  /><polygon
    fill="rgb(247,132,25)"
    stroke="rgb(247,132,25)"
    points="678.9956960082054,562.9307042062283 625.1452353596687,569.6664828062057 532.7125158905983,455.79010114073753"
  /><polygon
    fill="rgb(192,172,157)"
    stroke="rgb(192,172,157)"
    points="694.8247355222702,618.0876670777798 665.365235209465,670.9676507115364 589.4798123836517,685.2877244353294"
  /><polygon
    fill="rgb(192,172,157)"
    stroke="rgb(192,172,157)"
    points="589.4798123836517,685.2877244353294 580.2992336452007,661.7904978990555 605.2678768336773,636.7968466877937"
  /><polygon
    fill="rgb(192,172,157)"
    stroke="rgb(192,172,157)"
    points="605.2678768336773,636.7968466877937 622.0771145820618,629.718858897686 589.4798123836517,685.2877244353294"
  /><polygon
    fill="rgb(192,172,157)"
    stroke="rgb(192,172,157)"
    points="589.4798123836517,685.2877244353294 622.0771145820618,629.718858897686 694.8247355222702,618.0876670777798"
  /><polygon
    fill="rgb(0,0,0)"
    stroke="rgb(0,0,0)"
    points="647.8173208236694,580.571650415659 625.1452353596687,569.6664828062057 678.9956960082054,562.9307042062283"
  /><polygon
    fill="rgb(0,0,0)"
    stroke="rgb(0,0,0)"
    points="678.9956960082054,562.9307042062283 701.5822941064835,573.4090904891491 647.8173208236694,580.571650415659"
  /><polygon
    fill="rgb(0,0,0)"
    stroke="rgb(0,0,0)"
    points="641.6259676218033,590.057952851057 707.0897483825684,581.0023771226406 694.8247355222702,618.0876670777798"
  /><polygon
    fill="rgb(0,0,0)"
    stroke="rgb(0,0,0)"
    points="694.8247355222702,618.0876670777798 622.0771145820618,629.718858897686 641.6259676218033,590.057952851057"
  /><polygon
    fill="rgb(0,0,0)"
    stroke="rgb(0,0,0)"
    points="701.5822941064835,573.4090904891491 707.0897483825684,581.0023771226406 641.6259676218033,590.057952851057"
  /><polygon
    fill="rgb(0,0,0)"
    stroke="rgb(0,0,0)"
    points="622.0771145820618,629.718858897686 605.2678768336773,636.7968466877937 615.3337296843529,579.3305499851704"
  /><polygon
    fill="rgb(0,0,0)"
    stroke="rgb(0,0,0)"
    points="641.6259676218033,590.057952851057 647.8173208236694,580.571650415659 701.5822941064835,573.4090904891491"
  /><polygon
    fill="rgb(0,0,0)"
    stroke="rgb(0,0,0)"
    points="615.3337296843529,579.3305499851704 625.1452353596687,569.6664828062057 647.8173208236694,580.571650415659"
  /><polygon
    fill="rgb(0,0,0)"
    stroke="rgb(0,0,0)"
    points="615.3337296843529,579.3305499851704 641.6259676218033,590.057952851057 622.0771145820618,629.718858897686"
  /><polygon
    fill="rgb(0,0,0)"
    stroke="rgb(0,0,0)"
    points="647.8173208236694,580.571650415659 641.6259676218033,590.057952851057 615.3337296843529,579.3305499851704"
  /></svg>
